<svg id="Ban" xmlns="http://www.w3.org/2000/svg" viewBox="0 0 1098.25 250.3"><defs><style>.cls-1{fill:#201351;}.cls-2{fill:#ffcb1b;}.cls-3{fill:#878787;}</style></defs><title>Artboard 1 copy 5</title><g id="MESG-HEAD"><g id="Logo"><path id="MESG" class="cls-1" d="M110.22,76.29v97.76a6.93,6.93,0,0,1-1.79,5.11,6.83,6.83,0,0,1-5.11,1.79,6.93,6.93,0,0,1-5.11-1.79,6.83,6.83,0,0,1-1.79-5.11V97.83l-30.29,44.6a10.65,10.65,0,0,1-3.64,3.39,10.2,10.2,0,0,1-4.79,1.09,6,6,0,0,1-3.51-1.09A13.75,13.75,0,0,1,51,142.43L20.58,97.7v76.36a6.93,6.93,0,0,1-1.79,5.11A6.93,6.93,0,0,1,13.67,181a6.93,6.93,0,0,1-5.11-1.79,6.83,6.83,0,0,1-1.79-5.11V76.29a6.93,6.93,0,0,1,1.79-5.11,6.83,6.83,0,0,1,5.11-1.79c3.07,0,5.62,1.47,7.54,4.47l37.51,56.42L96.23,73.87a9.31,9.31,0,0,1,8.37-4.47C108.37,69.39,110.22,71.69,110.22,76.29ZM232,168.95a6.92,6.92,0,0,1-5.11,12h-59a6.93,6.93,0,0,1-5.11-1.79,6.83,6.83,0,0,1-1.79-5.11V76.29a6.93,6.93,0,0,1,1.79-5.11,6.83,6.83,0,0,1,5.11-1.79h59a6.92,6.92,0,1,1,0,13.8H174.76v34.57h32.72a6.92,6.92,0,1,1,0,13.8H174.76v35.53H226.9A7,7,0,0,1,232,168.95Zm50.42,6.33c-5.24-3.77-8.5-9.65-9.78-17.51-.19-2.3.26-4.09,1.47-5.37a6.85,6.85,0,0,1,5.24-1.92,6.71,6.71,0,0,1,4.92,1.6,9.31,9.31,0,0,1,2.3,5.18c.77,3.71,2.49,6.33,5.18,7.73s6.9,2.11,12.59,2.11h23.71c4.86,0,8.5-.58,11.12-1.66a10.08,10.08,0,0,0,5.5-5.5c1.09-2.56,1.66-6.2,1.66-10.93,0-7-1.34-11.82-4-14.5s-7.41-4-14.31-4H307.67c-10.29,0-18-2.49-23-7.54s-7.54-12.78-7.54-23.19,2.49-18,7.48-22.94,12.65-7.48,22.94-7.48h19.55q26,0,30,21.73a6.17,6.17,0,0,1-1.34,5.37,7.12,7.12,0,0,1-5.43,1.92,6.73,6.73,0,0,1-4.92-1.66,8.81,8.81,0,0,1-2.11-5.11A9.93,9.93,0,0,0,338.34,85c-2.43-1.21-6.13-1.79-11.18-1.79H307.54c-4.47,0-7.92.51-10.29,1.47a8.53,8.53,0,0,0-4.92,5c-1,2.36-1.41,5.75-1.41,10.1s.51,7.92,1.47,10.29a9.22,9.22,0,0,0,5,5.11c2.36,1,5.81,1.53,10.29,1.53h20.38c10.86,0,18.91,2.62,24.22,7.92s7.92,13.35,7.92,24.35-2.62,18.91-7.92,24.09S339,181,328.11,181H304.41C295,181,287.67,179,282.43,175.27Zm129.46-3.32c-6-6-8.95-15.27-8.95-27.86V106.26c0-12.59,3-21.92,8.95-28s15.21-9,27.73-8.88h19.94c10.29,0,18.21,2.11,23.64,6.39s8.56,11,9.46,20.06c.32,2.3-.13,4.09-1.34,5.24a7,7,0,0,1-5.24,1.79,6.91,6.91,0,0,1-5-1.73A8.85,8.85,0,0,1,478.79,96c-.58-4.92-2.24-8.31-5.11-10.1s-7.54-2.68-14.12-2.68H439.62c-5.94-.13-10.54.58-13.8,2a12.66,12.66,0,0,0-7,7.09c-1.34,3.32-2,7.92-2,14v37.83c0,6,.7,10.67,2.17,13.93a13,13,0,0,0,7,7c3.26,1.41,7.86,2.11,13.93,2.11h19.74q7.86,0,12.08-1.73a10.46,10.46,0,0,0,5.94-5.94q1.73-4.22,1.73-12.08v-7.73l-12.84-.19q-6.9,0-6.9-6.9a6.93,6.93,0,0,1,1.79-5.11,6.83,6.83,0,0,1,5.11-1.79l19.74.19a6.24,6.24,0,0,1,6.9,6.9v14.63c0,11.63-2.68,20.13-8.12,25.5s-13.93,8.05-25.43,8.05H439.81C427.16,181,417.89,178,411.88,171.95Z"/><path id="Lines" class="cls-2" d="M320.77,34.06a2,2,0,0,1-1.21-.38,2,2,0,0,1-.38-2.88l22.62-30A2.12,2.12,0,0,1,343.45,0H498a2,2,0,0,1,2,2,2,2,0,0,1-2,2H344.35l-22,29.14A2.09,2.09,0,0,1,320.77,34.06ZM499.87,18.47a2,2,0,0,0-2-2H355.53a2,2,0,1,0,0,4.09h142.3A2,2,0,0,0,499.87,18.47ZM159.23,249.52l22.62-30a2.05,2.05,0,1,0-3.26-2.49l-22,29.14H2a2,2,0,0,0,0,4.09H157.64A1.78,1.78,0,0,0,159.23,249.52Zm-11.76-17.7a2,2,0,0,0-2-2H2a2,2,0,0,0,0,4.09H145.43A2,2,0,0,0,147.48,231.82Z"/></g><path class="cls-3" d="M701.63,105.44V64.07a1.47,1.47,0,0,1,2.94,0V104h21.91a1.47,1.47,0,0,1,0,2.94H703.1A1.3,1.3,0,0,1,701.63,105.44Z"/><path class="cls-3" d="M737.82,65.89v-1.4a1.86,1.86,0,0,1,2.1-2.1h1.4a1.86,1.86,0,0,1,2.1,2.1v1.4a2.18,2.18,0,0,1-.56,1.61,2.08,2.08,0,0,1-1.54.56h-1.4A1.89,1.89,0,0,1,737.82,65.89Zm1.33,39.55V76.11a1.47,1.47,0,0,1,2.94,0v29.33a1.47,1.47,0,0,1-2.94,0Z"/><path class="cls-3" d="M785.53,77.48q2.9,2.9,2.91,9.34v7.84q0,6.37-2.91,9.31t-9.34,2.94h-2.66a19.85,19.85,0,0,1-7.87-1.33,9.14,9.14,0,0,1-4.51-4v3.85a1.47,1.47,0,0,1-2.94,0V60.08a1.47,1.47,0,0,1,2.94,0V79.89a9.15,9.15,0,0,1,4.51-4,19.86,19.86,0,0,1,7.88-1.33h2.66Q782.62,74.57,785.53,77.48Zm0,9.34q0-5.18-2.06-7.25t-7.25-2.07h-2.66q-5.88,0-9.13,1.93a6.23,6.23,0,0,0-3.25,5.71V96.55a6.17,6.17,0,0,0,3.36,5.53q3.29,1.89,9,1.89h2.66q5.18,0,7.25-2.1t2.06-7.21Z"/><path class="cls-3" d="M822,76.11a1.3,1.3,0,0,1-1.47,1.47q-6.3,0-9.83,3t-3.89,8.75a1,1,0,0,1-.07.42v15.68a1.47,1.47,0,0,1-2.94,0V76.11a1.47,1.47,0,0,1,2.94,0v6.58a12.79,12.79,0,0,1,5.25-6,16.54,16.54,0,0,1,8.54-2.06A1.3,1.3,0,0,1,822,76.11Z"/><path class="cls-3" d="M855.53,77.55q2.9,2.91,2.91,9.35v18.55a1.47,1.47,0,1,1-2.94,0v-4.13a10.34,10.34,0,0,1-4.73,4.17,18.27,18.27,0,0,1-7.67,1.43h-3.92q-5.32,0-7.73-2.42T829,96.76q0-5.32,2.45-7.77t7.7-2.45h16.31q-.07-4.9-2.17-6.93t-7.14-2h-4.06q-4.76,0-6.93,1.08a4.73,4.73,0,0,0-2.59,3.75q-.21,1.4-1.47,1.4a1.49,1.49,0,0,1-1.16-.42,1.38,1.38,0,0,1-.31-1.12A6.88,6.88,0,0,1,833,76.5q3.08-1.85,9.1-1.85h4.06Q852.62,74.64,855.53,77.55Zm0,18.31V89.48H839.18q-4.06,0-5.63,1.61T832,96.76q0,4.06,1.58,5.64t5.63,1.57h3.92q11.34,0,12.32-7.7Z"/><path class="cls-3" d="M892.1,76.11a1.3,1.3,0,0,1-1.47,1.47q-6.3,0-9.83,3t-3.89,8.75a1,1,0,0,1-.07.42v15.68a1.47,1.47,0,0,1-2.94,0V76.11a1.47,1.47,0,0,1,2.94,0v6.58a12.79,12.79,0,0,1,5.25-6,16.54,16.54,0,0,1,8.54-2.06A1.3,1.3,0,0,1,892.1,76.11Z"/><path class="cls-3" d="M904,118.81q-2.07-2.1-2.07-6.58a1.47,1.47,0,1,1,2.94,0q0,3.29,1.22,4.51t4.45,1.22H922.2q3.22,0,4.44-1.22t1.23-4.51v-9.87a11,11,0,0,1-5,3.5,21.77,21.77,0,0,1-7.42,1.12H914q-6.3,0-9.17-2.87T902,95V76a1.47,1.47,0,0,1,2.94,0V95q0,5,2,7t7.1,2h1.47q12.39,0,12.39-9V76a1.47,1.47,0,1,1,2.94,0v36.19q0,4.48-2.06,6.58t-6.54,2.1H910.58Q906.1,120.91,904,118.81Z"/><path class="cls-3" d="M701.32,188.22q-3.33-2.69-3.89-8.57a2.19,2.19,0,0,1,2.45-2.59,2.38,2.38,0,0,1,2.59,2.52q.42,3.57,2.35,4.93t6.4,1.37h4.69a14.52,14.52,0,0,0,5.35-.77,4.81,4.81,0,0,0,2.66-2.66,14.25,14.25,0,0,0,.81-5.39V146.88a2.23,2.23,0,0,1,2.52-2.52,2.31,2.31,0,0,1,2.52,2.52v30.17q0,7.21-3.33,10.54t-10.54,3.33h-4.69Q704.64,190.91,701.32,188.22Z"/><path class="cls-3" d="M772.05,159.55q3.22,3.22,3.22,10.08v18.76a2.52,2.52,0,1,1-5,0v-2.24q-3.71,4.76-11.34,4.76H755q-5.74,0-8.47-2.73t-2.73-8.47q0-5.74,2.73-8.47t8.47-2.73h15.26q-.21-4.06-2-5.6T762,161.37h-4.06a18.06,18.06,0,0,0-5.74.67,3.91,3.91,0,0,0-2.45,2.28,4.52,4.52,0,0,1-1,1.75,2.49,2.49,0,0,1-1.68.49,2.82,2.82,0,0,1-1.82-.56,1.79,1.79,0,0,1-.7-1.47,1.82,1.82,0,0,1,.07-.56,8.31,8.31,0,0,1,4.09-5.77q3.25-1.85,9.28-1.86H762Q768.83,156.33,772.05,159.55Zm-1.82,19.81v-5.81H755q-3.64,0-4.9,1.26t-1.26,4.9q0,3.64,1.26,4.9t4.9,1.26h3.92q9.59,0,11.06-5.67A4.28,4.28,0,0,1,770.23,179.36Z"/><path class="cls-3" d="M818.39,158.64A3.73,3.73,0,0,1,818,160L804.81,189a3.06,3.06,0,0,1-2.94,1.89,2.88,2.88,0,0,1-2.8-2l-12.32-29a2.78,2.78,0,0,1-.28-1.26,2.14,2.14,0,0,1,1.61-2,2.63,2.63,0,0,1,1.19-.28,2.18,2.18,0,0,1,2.1,1.61l10.64,25,11.48-25.06a2.21,2.21,0,0,1,2.17-1.54,2.63,2.63,0,0,1,1.19.28A2.3,2.3,0,0,1,818.39,158.64Z"/><path class="cls-3" d="M857.17,159.55q3.22,3.22,3.22,10.08v18.76a2.52,2.52,0,1,1-5,0v-2.24q-3.71,4.76-11.34,4.76h-3.92q-5.74,0-8.47-2.73t-2.73-8.47q0-5.74,2.73-8.47t8.47-2.73h15.26q-.21-4.06-2-5.6t-6.23-1.54H843a18.06,18.06,0,0,0-5.74.67,3.91,3.91,0,0,0-2.45,2.28,4.52,4.52,0,0,1-1,1.75,2.49,2.49,0,0,1-1.68.49,2.82,2.82,0,0,1-1.82-.56,1.79,1.79,0,0,1-.7-1.47,1.82,1.82,0,0,1,.07-.56,8.31,8.31,0,0,1,4.09-5.77q3.25-1.85,9.28-1.86h4.06Q854,156.33,857.17,159.55Zm-1.82,19.81v-5.81H840.09q-3.64,0-4.9,1.26t-1.26,4.9q0,3.64,1.26,4.9t4.9,1.26H844q9.59,0,11.06-5.67A4.28,4.28,0,0,1,855.35,179.36Z"/><path class="cls-3" d="M879.57,188.32q-3.22-2.59-3.78-8a2.19,2.19,0,0,1,2.45-2.59q2.31,0,2.59,2.52.42,3.15,2.24,4.38t5.81,1.22H899a13.28,13.28,0,0,0,5-.74,4.48,4.48,0,0,0,2.48-2.48,13,13,0,0,0,.74-4.9,12.75,12.75,0,0,0-.77-5,4.77,4.77,0,0,0-2.52-2.52,12.51,12.51,0,0,0-4.9-.77h-9q-6.37,0-9.49-3.12t-3.12-9.48q0-6.44,3.08-9.49t9.45-3h8.89q5.74,0,8.79,2.42t3.61,7.46a2.24,2.24,0,0,1-.53,1.92,2.6,2.6,0,0,1-1.92.67,2.42,2.42,0,0,1-1.79-.59,3.35,3.35,0,0,1-.8-1.86,5.12,5.12,0,0,0-2-3.85,9.82,9.82,0,0,0-5.32-1.12h-8.89q-4.27,0-5.88,1.58t-1.61,5.92q0,4.27,1.65,5.91t5.92,1.65h9q6.79,0,10,3.25t3.22,10q0,6.79-3.22,10t-10,3.18H888.88Q882.79,190.91,879.57,188.32Z"/><path class="cls-3" d="M930.15,187.66q-3.26-3.25-3.26-10v-8q0-6.86,3.26-10.08t10-3.15h5.74q5.18,0,8.08,1.75a7.65,7.65,0,0,1,3.61,5.39,2.12,2.12,0,0,1-.49,2,2.75,2.75,0,0,1-2,.7,2.18,2.18,0,0,1-1.61-.56,4.65,4.65,0,0,1-1-1.75,3.17,3.17,0,0,0-2-1.89,14,14,0,0,0-4.58-.56h-5.74a12.09,12.09,0,0,0-5,.7,4.75,4.75,0,0,0-2.52,2.52,12.71,12.71,0,0,0-.77,5v8a12.7,12.7,0,0,0,.77,5,4.75,4.75,0,0,0,2.52,2.52,12.72,12.72,0,0,0,5,.77h5.74a14,14,0,0,0,4.58-.56,3.16,3.16,0,0,0,2-1.89,4.67,4.67,0,0,1,1-1.75,2.28,2.28,0,0,1,1.68-.56,2.65,2.65,0,0,1,2,.7,2.12,2.12,0,0,1,.49,2,7.65,7.65,0,0,1-3.61,5.39q-2.9,1.75-8.08,1.75h-5.74Q933.4,190.91,930.15,187.66Z"/><path class="cls-3" d="M992.23,157a2.52,2.52,0,0,1-1.85,4.38q-6.3,0-9.62,2.59a8.55,8.55,0,0,0-3.33,7.14v17.29a2.52,2.52,0,1,1-5,0V158.85a2.52,2.52,0,1,1,5,0v3.71a13,13,0,0,1,5.32-4.66,17.48,17.48,0,0,1,7.63-1.58A2.51,2.51,0,0,1,992.23,157Z"/><path class="cls-3" d="M1003.82,149.58a3.05,3.05,0,0,1-.77-2.21v-2q0-2.87,3-2.87h1.82a2.57,2.57,0,0,1,2.87,2.87v2a3.06,3.06,0,0,1-.77,2.21,2.77,2.77,0,0,1-2.1.8h-1.82A3,3,0,0,1,1003.82,149.58Zm1.29,40.67a2.5,2.5,0,0,1-.67-1.85V158.85a2.52,2.52,0,1,1,5,0v29.54a2.63,2.63,0,0,1-4.37,1.85Z"/><path class="cls-3" d="M1056.11,159.55q3.22,3.22,3.22,10.08v8q0,6.79-3.22,10T1046,190.91h-14v11.48a2.52,2.52,0,1,1-5,0V158.85a2.52,2.52,0,1,1,5,0v1.61q3.57-4.13,11.34-4.13H1046Q1052.89,156.33,1056.11,159.55Zm-1.82,10.08a12.75,12.75,0,0,0-.77-5,4.77,4.77,0,0,0-2.52-2.52,12.72,12.72,0,0,0-5-.77h-2.66a19.83,19.83,0,0,0-8.26,1.43Q1032,164.24,1032,167v18.83h14a12.73,12.73,0,0,0,5-.77,4.76,4.76,0,0,0,2.52-2.52,12.74,12.74,0,0,0,.77-5Z"/><path class="cls-3" d="M1091,188.39a2.31,2.31,0,0,1-2.52,2.52q-6.72,0-9.91-3.15t-3.18-9.87V161.37h-3.71a2.52,2.52,0,1,1,0-5h3.71v-6a2.52,2.52,0,1,1,5,0v6h8.33a2.52,2.52,0,1,1,0,5h-8.33v16.52a12.74,12.74,0,0,0,.74,4.86,4.36,4.36,0,0,0,2.45,2.42,13.34,13.34,0,0,0,4.87.7A2.23,2.23,0,0,1,1091,188.39Z"/><path id="Separator-grey" class="cls-3" d="M595.27,180.9a2,2,0,0,0,2-2V71.44a2,2,0,1,0-4.09,0V178.85A2,2,0,0,0,595.27,180.9Z"/></g></svg>